<?xml version="1.0" standalone="no"?>
<!DOCTYPE svg PUBLIC "-//W3C//DTD SVG 20010904//EN"
 "http://www.w3.org/TR/2001/REC-SVG-20010904/DTD/svg10.dtd">
<svg version="1.0" xmlns="http://www.w3.org/2000/svg"
 width="260.000000pt" height="260.000000pt" viewBox="0 0 260.000000 260.000000"
 preserveAspectRatio="xMidYMid meet">
<metadata>
Created by potrace 1.11, written by Peter Selinger 2001-2013
</metadata>
<g transform="translate(0.000000,260.000000) scale(0.100000,-0.100000)"
fill="#000000" stroke="none">
<path d="M1180 2514 c-14 -2 -56 -9 -95 -15 -92 -15 -225 -59 -317 -104 -343
-172 -577 -473 -665 -857 -23 -102 -23 -384 0 -486 113 -493 466 -846 959
-959 102 -23 384 -23 486 0 378 86 681 318 848 649 97 192 127 325 127 553 0
181 -9 246 -58 391 -137 408 -487 717 -917 810 -70 15 -316 27 -368 18z m-114
-693 c174 -33 284 -124 346 -283 26 -67 36 -229 18 -311 -28 -137 -130 -272
-243 -322 -81 -35 -153 -45 -339 -45 l-168 0 0 485 0 485 169 0 c92 0 190 -4
217 -9z m844 -431 l0 -200 45 0 45 0 0 -40 0 -40 -45 0 -45 0 0 -125 0 -125
-45 0 -45 0 0 125 0 125 -160 0 -160 0 0 53 0 52 162 188 162 187 43 0 43 0 0
-200z"/>
<path d="M810 1346 l0 -376 73 0 c207 0 324 56 387 185 22 45 25 62 25 185 0
121 -3 141 -24 187 -13 29 -44 72 -70 96 -67 63 -139 87 -278 94 l-113 6 0
-377z"/>
<path d="M1698 1333 l-118 -138 117 -3 c63 -1 117 -1 120 1 2 2 2 66 1 141
l-3 136 -117 -137z"/>
</g>
</svg>
