<svg width="502" height="73" fill="none" xmlns="http://www.w3.org/2000/svg"><path d="M9.174 72.996L.109 58.236l17.314-.47-8.249 15.23zm490.822-70.5h-1.5v-.001-.003-.01-.038-.142-.483-1.23h3v1.906h-1.5zm1.5.718v1.918h-3V3.215h3zm0 1.918c.001 1.683.03 3.64-.083 5.66l-2.996-.168c.108-1.911.08-3.75.079-5.492h3zM498.2 22.143c-1.915 2.978-4.88 5.541-9.375 7.314l-1.1-2.791c3.959-1.561 6.404-3.74 7.951-6.145l2.524 1.622zm-20.676 9.714a70.12 70.12 0 01-5.709.22v-3c1.964 0 3.782-.072 5.464-.21l.245 2.99zm-5.709.22H467.047v-3H471.815v3zm-14.589 0H447.312v-3H457.226v3zm-19.744 0H427.665v-3H437.482v3zm-19.684 0H407.853v-3H417.798v3zm-19.74 0H388.229v-3H398.058v3zm-19.78 0H368.514v-3H378.278v3zm-19.649 0H348.782v-3H358.629v3zm-19.69 0H329.057v-3H338.939v3zm-19.705 0H309.343v-3h9.891v3zm-19.711 0H289.639v-3H299.523v3zm-19.711 0H269.944v-3H279.812v3zm-19.712 0H250.247v-3H260.1v3zm-19.711 0H230.546v-3H240.389v3zm-19.711 0H210.84v-3H220.678v3zm-19.708 0H191.129v-3H200.97v3zm-19.704 0H171.409v-3H181.266v3zm-19.691 0H151.684v-3H161.575v3zm-19.658 0H131.971v-3H141.917v3zm-19.766 0H112.318v-3H122.151v3zm-19.758 0H92.57v-3H102.393v3zm-19.56 0H72.911v-3H82.833v3zm-19.8 0H53.26v-3H63.032v3zm-19.82 0H38.529v-3H43.213v3zm-4.684 0c-1.803 0-3.524.021-5.162.075l-.098-2.999c1.68-.054 3.435-.075 5.26-.075v3zm-15.247 1.126c-3.692.798-6.478 2.096-8.474 4.108l-2.13-2.113c2.548-2.568 5.949-4.058 9.97-4.928l.634 2.933zm-12.27 12.601c-.223 1.483-.338 3.136-.338 4.98h-3c0-1.967.123-3.771.37-5.425l2.967.445zm-.338 4.98c0 2.08-.005 3.927-.014 5.572l-3-.016c.009-1.64.014-3.48.014-5.556h3z" fill="#B8B8B8"/></svg>