<svg width="502" height="81" fill="none" xmlns="http://www.w3.org/2000/svg"><path d="M492.826 81l9.083-14.748-17.313-.492 8.23 15.24zM2.004 0h-1.5v.031a2003.22 2003.22 0 000 1.778v4.64h3a439374.69 439374.69 0 000-5.972V.122.031.008.002 0h-1.5zm-1.5 19.364v6.453h3v-6.453h-3zm0 6.453c0 1.596-.034 3.486.105 5.433l2.992-.214c-.129-1.81-.098-3.553-.097-5.219h-3zM4.368 41.99c2.047 2.551 5.095 4.69 9.545 6.15l.935-2.851c-3.995-1.31-6.517-3.153-8.14-5.176l-2.34 1.877zm20.38 8.09c1.693.117 3.503.179 5.437.179v-3c-1.871 0-3.61-.06-5.227-.173l-.21 2.993zm5.437.179H34.953v-3H30.185v3zm14.59 0H54.687v-3H44.774v3zm19.743 0H74.335v-3H64.518v3zm19.684 0H94.148v-3H84.201v3zm19.74 0H113.771v-3H103.942v3zm19.78 0H133.486v-3H123.722v3zm19.649 0H153.218v-3H143.371v3zm19.69 0H172.943v-3H163.061v3zm19.705 0H192.657v-3h-9.891v3zm19.711 0H212.361v-3H202.477v3zm19.711 0H232.056v-3H222.188v3zm19.712 0H251.753v-3H241.9v3zm19.711 0H271.454v-3H261.611v3zm19.711 0H291.16v-3H281.322v3zm19.708 0H310.871v-3H301.03v3zm19.704 0H330.591v-3H320.734v3zm19.691 0H350.316v-3H340.425v3zm19.658 0H370.029v-3H360.083v3zm19.766 0H389.682v-3H379.849v3zm19.758 0H409.43v-3H399.607v3zm19.56 0H429.089v-3H419.167v3zm19.8 0H448.74v-3h-9.773v3zm19.82 0H463.471v-3H458.787v3zm4.684 0c1.734 0 3.392.017 4.974.061l.083-2.999a182.187 182.187 0 00-5.057-.062v3zm14.737.916c3.672.657 6.486 1.732 8.539 3.384l1.881-2.337c-2.598-2.091-5.963-3.297-9.891-4l-.529 2.953zm12.734 11.068c.252 1.392.384 2.962.384 4.733h3c0-1.917-.142-3.67-.432-5.267l-2.952.534zm.384 4.733c0 1.314.003 2.485.007 3.53l3-.013c-.004-1.04-.007-2.207-.007-3.517h-3z" fill="#B8B8B8"/></svg>